{"glyphs":{"0":{"ha":714,"x_min":40,"x_max":669,"o":"m 369 932 q 503 894 443 932 q 597 793 563 857 q 651 653 632 729 q 669 494 669 578 q 661 358 669 425 q 631 221 653 292 q 577 96 610 150 q 491 5 544 42 q 369 -36 438 -32 q 218 1 285 -42 q 114 116 151 43 q 58 275 76 189 q 46 447 40 361 q 60 585 49 521 q 95 715 71 650 q 154 827 119 781 q 244 903 189 874 q 369 932 300 932 m 489 447 q 484 612 492 531 q 460 763 476 693 q 416 872 444 832 q 351 907 388 913 q 274 813 304 900 q 233 622 243 725 q 224 403 224 519 q 237 205 224 296 q 280 51 250 114 q 351 -12 310 -12 q 391 2 372 -12 q 423 42 410 17 q 447 102 436 67 q 465 177 458 138 q 478 263 472 217 q 486 354 483 310 q 489 447 489 399 m 281 442 l 357 592 l 438 447 l 367 303 l 281 442 z "},"1":{"ha":381,"x_min":29,"x_max":344,"o":"m 29 0 l 119 63 l 124 768 l 29 768 l 286 894 l 282 36 l 343 0 l 29 0 z "},"2":{"ha":672,"x_min":-11,"x_max":633,"o":"m 179 96 l 578 122 l 618 188 l 597 -17 l -11 -33 q 197 160 107 61 q 337 345 286 258 q 417 514 388 432 q 450 661 447 596 q 442 778 453 726 q 406 862 431 831 q 349 901 381 893 q 296 895 325 907 q 239 860 267 883 q 183 806 211 836 q 132 743 156 775 q 90 684 108 711 q 61 640 71 657 l 51 624 l 29 876 l 79 826 q 88 834 82 829 q 113 853 93 839 q 153 878 132 867 q 206 903 174 890 q 269 922 238 915 q 342 928 301 929 q 422 918 382 928 q 564 833 511 894 q 625 698 617 772 q 606 544 633 624 q 519 400 579 464 q 468 349 499 378 q 406 291 438 319 q 342 233 375 263 q 281 180 310 204 q 228 137 251 156 q 193 107 206 118 l 179 96 z "},"3":{"ha":686,"x_min":19,"x_max":653,"o":"m 344 506 q 363 502 351 504 q 407 490 374 500 q 470 467 440 481 q 536 428 500 454 q 597 369 572 401 q 636 285 621 336 q 649 175 651 235 q 599 34 643 94 q 488 -54 556 -26 q 344 -85 421 -82 q 191 -59 268 -89 q 57 29 114 -29 l 19 -14 l 35 53 l 69 208 q 74 192 71 201 q 88 153 76 182 q 111 98 99 124 q 146 42 124 72 q 192 -9 168 11 q 251 -40 217 -29 q 324 -43 286 -50 q 416 9 378 -33 q 469 108 454 51 q 479 229 483 165 q 453 348 475 293 q 389 440 432 403 q 289 482 346 478 l 249 388 l 240 622 l 279 525 q 381 565 340 525 q 431 661 422 604 q 432 777 440 718 q 390 881 424 836 q 310 933 356 925 q 269 928 290 936 q 230 903 249 919 q 193 867 211 888 q 161 826 175 847 q 136 788 147 806 q 119 760 125 771 l 114 749 l 69 936 l 124 897 q 514 921 360 1051 q 572 806 567 876 q 547 671 578 735 q 460 559 517 607 q 344 506 404 511 z "},"4":{"ha":713,"x_min":69,"x_max":676,"o":"m 639 283 l 675 371 l 675 183 l 639 254 l 588 253 l 592 44 l 631 7 l 382 -11 l 435 36 l 438 249 l 117 239 l 117 238 l 69 238 l 571 907 l 586 282 l 639 283 m 143 272 l 438 279 l 442 674 l 143 272 z "},"5":{"ha":665,"x_min":36,"x_max":622,"o":"m 139 538 q 269 603 192 586 q 417 607 346 621 q 541 542 488 593 q 601 413 594 490 q 562 152 617 244 q 364 42 507 60 q 205 39 267 32 q 115 58 143 46 l 86 71 l 54 1 l 38 222 q 47 202 40 214 q 74 160 53 190 q 122 109 96 131 q 192 73 149 88 q 282 65 235 58 q 356 105 324 71 q 403 186 388 139 q 424 288 419 233 q 419 392 428 343 q 386 477 410 440 q 326 524 363 514 q 244 531 282 535 q 177 514 207 528 q 126 485 147 500 q 93 458 104 471 l 82 447 l 136 894 l 621 894 l 596 701 l 575 767 l 168 781 l 139 538 z "},"6":{"ha":707,"x_min":43,"x_max":678,"o":"m 261 582 q 360 635 282 624 q 560 576 475 650 q 657 232 678 472 q 608 54 649 131 q 513 -60 568 -22 q 391 -106 457 -97 q 265 -90 325 -114 q 156 -8 206 -65 q 86 132 107 50 q 49 388 53 257 q 66 630 44 518 q 137 831 88 742 q 257 965 186 921 q 349 999 300 992 q 438 999 399 1007 q 510 980 478 992 q 563 956 543 968 l 581 944 l 621 976 l 604 758 q 596 781 601 767 q 569 830 590 794 q 526 892 549 865 q 465 942 503 919 q 388 964 428 964 q 319 924 347 964 q 281 828 292 885 q 265 716 269 772 q 260 621 260 660 l 261 582 m 310 -6 q 323 -41 310 -6 q 372 -76 336 -75 q 432 -8 407 -76 q 463 160 457 61 q 464 357 469 258 q 431 525 458 456 q 364 594 404 594 q 303 525 328 594 q 275 358 279 456 q 278 161 271 260 q 310 -6 285 63 z "},"7":{"ha":610,"x_min":8,"x_max":589,"o":"m 588 915 l 375 15 l 436 -33 l 131 -25 l 518 788 l 69 782 l 8 717 l 32 965 l 65 917 l 588 915 z "},"8":{"ha":647,"x_min":40,"x_max":604,"o":"m 431 485 q 452 473 439 481 q 497 436 465 465 q 551 373 529 407 q 588 281 574 339 q 594 158 603 224 q 513 17 582 71 q 321 -37 443 -37 q 138 13 214 -37 q 47 158 61 64 q 45 241 40 204 q 64 306 50 278 q 96 356 78 335 q 134 392 114 376 q 171 416 154 407 q 197 429 188 425 l 208 433 q 106 557 140 490 q 73 684 72 624 q 98 797 74 744 q 171 883 122 849 q 279 928 219 918 q 435 922 364 940 q 551 847 506 903 q 594 704 596 790 q 577 628 594 665 q 535 567 560 592 q 488 522 511 542 q 447 493 464 503 l 431 485 m 339 903 q 228 825 254 907 q 258 633 200 738 q 396 500 307 549 q 433 547 415 513 q 462 626 451 582 q 472 719 472 671 q 459 807 471 767 q 416 874 447 847 q 339 903 385 901 m 292 3 q 407 78 376 0 q 383 267 439 164 q 238 407 335 356 q 200 341 218 388 q 174 238 182 294 q 170 130 165 182 q 206 42 175 78 q 292 3 238 6 z "},"9":{"ha":656,"x_min":38,"x_max":615,"o":"m 603 611 q 603 379 614 483 q 566 208 593 275 q 505 99 539 140 q 432 40 471 57 q 336 16 385 19 q 252 22 288 13 q 188 44 217 32 q 143 67 158 56 l 128 78 l 88 47 l 104 264 q 106 256 104 261 q 112 236 107 251 q 123 206 117 221 q 139 172 129 192 q 160 134 149 151 q 186 99 171 117 q 218 69 201 82 q 256 49 235 57 q 301 42 278 42 q 369 74 342 42 q 408 153 397 107 q 424 247 419 200 q 429 325 429 293 l 428 358 q 393 325 418 339 q 334 307 368 311 q 261 306 300 303 q 185 326 222 310 q 117 370 147 343 q 66 442 86 397 q 43 542 46 486 q 91 758 38 671 q 224 865 144 844 q 387 870 304 886 q 532 783 469 854 q 603 611 594 713 m 321 328 q 381 382 357 328 q 410 513 404 436 q 409 668 415 590 q 378 801 403 746 q 317 856 353 856 q 256 801 282 856 q 224 669 231 747 q 222 514 217 592 q 253 382 226 436 q 321 328 279 328 z "},"\u0000":{"ha":0,"x_min":0,"x_max":0,"o":""},"\n":{"ha":0,"x_min":0,"x_max":0,"o":""},"\r":{"ha":0,"x_min":0,"x_max":0,"o":""}," ":{"ha":342,"x_min":0,"x_max":0,"o":""},"!":{"ha":261,"x_min":44,"x_max":215,"o":"m 151 199 l 114 199 l 65 968 l 196 983 l 151 199 m 69 125 q 82 138 69 125 q 130 150 94 150 q 190 125 165 150 q 215 65 215 100 q 190 4 215 29 q 130 -21 165 -21 q 69 4 94 -21 q 44 65 44 29 q 69 125 44 100 z "},"\"":{"ha":442,"x_min":28,"x_max":413,"o":"m 265 967 q 278 979 265 967 q 326 992 290 992 q 386 967 361 992 q 411 906 411 942 q 394 809 411 858 q 358 733 376 760 l 340 707 l 265 779 l 307 768 q 354 825 333 789 q 326 821 340 821 q 265 846 290 821 q 240 906 240 871 q 265 967 240 942 m 53 967 q 65 979 53 967 q 113 992 78 992 q 174 967 149 992 q 199 906 199 942 q 181 809 199 858 q 144 733 163 760 l 126 707 l 53 779 l 94 768 q 142 825 119 789 q 113 821 126 821 q 53 846 78 821 q 28 906 28 871 q 53 967 28 942 z "},"#":{"ha":735,"x_min":25,"x_max":708,"o":"m 708 600 l 524 603 l 507 383 l 701 383 l 701 325 l 503 329 l 479 13 l 410 13 l 436 331 l 240 335 l 211 54 l 154 54 l 182 336 l 25 339 l 25 383 l 186 383 l 208 610 l 32 614 l 32 657 l 213 657 l 239 929 l 301 929 l 274 657 l 464 657 l 488 950 l 549 950 l 528 657 l 708 657 l 708 600 m 440 383 l 458 604 l 268 608 l 244 383 l 440 383 z "},"$":{"ha":629,"x_min":42,"x_max":618,"o":"m 343 574 q 574 266 532 375 q 549 85 617 157 q 343 13 482 13 q 340 13 342 13 q 335 13 338 13 q 332 14 333 14 l 331 -124 l 300 -124 l 300 17 q 199 44 249 24 q 125 83 150 65 l 101 100 l 54 51 l 115 271 q 120 249 117 263 q 138 200 124 236 q 172 135 153 164 q 224 80 190 107 q 299 46 258 53 l 299 274 q 232 357 269 311 q 197 399 213 381 q 161 446 182 418 q 125 499 140 474 q 92 556 110 525 q 65 616 75 586 q 49 676 56 646 q 43 739 42 707 q 53 800 44 771 q 145 917 75 876 q 297 949 215 957 l 297 1088 l 336 1088 l 336 943 q 407 915 374 933 q 469 865 440 896 q 517 793 499 835 l 572 839 l 511 665 q 505 691 510 675 q 484 749 500 707 q 451 822 468 790 q 406 880 433 854 q 351 906 379 906 q 336 904 343 904 l 335 583 q 343 574 340 576 m 299 893 q 244 787 243 864 q 299 629 244 710 l 299 893 m 332 43 q 400 89 401 44 q 332 228 399 133 l 332 43 z "},"%":{"ha":914,"x_min":21,"x_max":892,"o":"m 249 522 q 144 540 190 519 q 72 597 97 561 q 33 676 46 633 q 24 761 21 718 q 40 846 28 807 q 76 921 51 885 q 145 978 101 957 q 249 1000 189 1000 q 403 935 350 1000 q 457 783 457 871 q 447 699 457 740 q 415 617 438 657 q 351 551 393 576 q 249 522 308 525 m 149 739 q 172 599 149 658 q 238 540 194 540 q 274 553 257 540 q 301 588 290 567 q 318 639 311 610 q 328 698 325 668 q 333 760 332 728 q 326 865 335 815 q 293 950 317 915 q 238 981 269 985 q 194 954 213 978 q 166 893 175 931 q 153 817 157 856 q 149 739 149 779 m 683 440 q 800 408 751 440 q 870 327 849 375 q 892 225 892 279 q 881 140 892 181 q 849 58 871 99 q 785 -9 828 17 q 683 -37 742 -35 q 578 -19 624 -40 q 506 38 532 1 q 467 116 479 74 q 458 201 456 158 q 469 269 461 238 q 493 333 476 301 q 534 388 510 365 q 597 426 558 411 q 683 440 635 440 m 767 201 q 759 306 768 256 q 727 390 750 356 q 671 421 704 425 q 628 394 646 418 q 600 333 610 371 q 586 258 590 296 q 582 179 582 219 q 605 40 582 99 q 671 -19 628 -19 q 708 -6 692 -19 q 734 28 724 7 q 751 80 744 50 q 762 139 758 110 q 767 201 765 168 m 679 1001 l 729 981 l 238 -35 l 156 -19 l 679 1001 z "},"&":{"ha":774,"x_min":29,"x_max":767,"o":"m 715 144 l 767 171 l 661 29 q 478 193 558 100 q 364 97 426 132 q 244 59 301 63 q 139 76 188 56 q 61 145 90 96 q 31 264 32 194 q 42 340 31 303 q 71 403 53 376 q 110 452 89 429 q 154 490 132 475 q 194 516 176 506 q 224 531 213 526 l 236 536 q 195 619 214 572 q 167 722 176 665 q 164 825 157 779 q 208 902 171 871 q 314 933 246 933 q 423 913 372 933 q 507 858 474 892 q 553 780 540 824 q 553 692 565 736 q 494 606 542 649 q 369 536 447 564 q 531 318 425 433 q 582 384 556 349 q 622 439 608 419 l 635 460 l 608 526 l 731 428 l 665 442 l 551 293 q 715 144 633 208 m 314 913 q 281 869 286 907 q 287 781 275 832 q 314 683 299 731 q 343 599 329 635 q 357 565 357 564 q 425 615 404 574 q 441 706 446 656 q 419 806 436 757 q 372 886 401 856 q 314 913 343 917 m 154 329 q 211 201 163 260 q 324 136 260 142 q 456 225 389 131 q 253 504 356 335 q 241 499 249 503 q 215 480 233 494 q 182 447 196 465 q 159 397 168 429 q 154 329 150 365 z "},"'":{"ha":228,"x_min":28,"x_max":199,"o":"m 53 967 q 65 979 53 967 q 113 992 78 992 q 174 967 149 992 q 199 906 199 942 q 181 809 199 858 q 144 733 163 760 l 126 707 l 53 779 l 94 768 q 142 825 119 789 q 113 821 126 821 q 53 846 78 821 q 28 906 28 871 q 53 967 28 942 z "},"(":{"ha":376,"x_min":42,"x_max":406,"o":"m 228 689 q 219 643 228 689 q 210 501 210 597 q 230 312 210 406 q 278 152 250 218 q 336 35 307 86 q 385 -43 365 -17 q 404 -69 404 -69 l 372 -104 q 353 -94 365 -101 q 308 -60 342 -86 q 242 -3 274 -33 q 173 78 211 28 q 108 183 135 128 q 62 312 81 238 q 43 465 43 386 q 60 631 43 551 q 106 770 78 711 q 167 880 133 829 q 235 964 201 931 q 296 1022 268 997 q 342 1057 324 1046 l 358 1068 l 382 1039 q 363 1015 375 1031 q 322 948 351 1000 q 269 838 292 896 q 228 689 246 781 z "},")":{"ha":379,"x_min":-44,"x_max":336,"o":"m 4 1099 q 23 1087 11 1094 q 69 1051 35 1079 q 135 989 104 1022 q 205 901 167 956 q 271 785 243 846 q 317 640 299 724 q 336 464 336 556 q 317 303 336 381 q 267 167 297 225 q 199 58 236 108 q 126 -28 163 7 q 58 -87 89 -62 q 8 -124 28 -112 l -10 -136 l -44 -97 q -33 -83 -40 -93 q -3 -42 -25 -74 q 37 25 18 -10 q 80 115 56 60 q 121 226 104 169 q 149 356 138 282 q 161 503 161 429 q 142 699 161 604 q 97 858 124 794 q 44 972 71 922 q -1 1044 17 1021 l -21 1068 l 4 1099 z "},"*":{"ha":433,"x_min":28,"x_max":406,"o":"m 406 797 l 236 782 l 392 686 l 301 600 l 210 761 l 160 600 l 67 665 l 175 775 l 28 789 l 69 897 l 190 819 l 160 978 l 264 994 l 229 821 l 357 906 l 406 797 z "},"+":{"ha":479,"x_min":21,"x_max":457,"o":"m 456 506 l 456 442 l 261 444 l 263 264 l 214 264 l 217 446 l 21 449 l 21 503 l 218 504 l 221 699 l 260 699 l 261 504 l 456 506 z "},",":{"ha":225,"x_min":26,"x_max":197,"o":"m 111 225 q 155 214 135 225 q 186 183 175 203 q 197 140 197 164 q 179 44 197 93 q 143 -32 161 -6 l 125 -58 l 51 14 l 93 3 q 140 60 118 24 q 111 54 125 54 q 51 79 76 54 q 26 140 26 104 q 51 200 26 175 q 111 225 76 225 z "},"-":{"ha":342,"x_min":17,"x_max":325,"o":"m 17 518 l 325 518 l 325 444 l 17 446 l 17 518 z "},".":{"ha":218,"x_min":24,"x_max":194,"o":"m 49 200 q 61 213 49 200 q 109 225 74 225 q 169 200 144 225 q 194 140 194 175 q 169 79 194 104 q 109 54 144 54 q 49 79 74 54 q 24 140 24 104 q 49 200 24 175 z "},"/":{"ha":606,"x_min":69,"x_max":538,"o":"m 488 1000 l 536 979 l 140 -36 l 69 0 l 488 1000 z "},":":{"ha":238,"x_min":32,"x_max":204,"o":"m 58 200 q 71 213 58 200 q 119 225 83 225 q 179 200 154 225 q 204 140 204 175 q 179 79 204 104 q 119 54 154 54 q 58 79 83 54 q 33 140 33 104 q 58 200 33 175 m 179 421 q 167 408 179 421 q 119 396 154 396 q 58 421 83 396 q 33 481 33 446 q 58 542 33 517 q 119 567 83 567 q 179 542 154 567 q 204 481 204 517 q 179 421 204 446 z "},";":{"ha":243,"x_min":36,"x_max":207,"o":"m 121 225 q 165 214 144 225 q 196 183 185 203 q 207 140 207 164 q 189 44 207 93 q 153 -32 171 -6 l 135 -58 l 61 14 l 103 3 q 150 60 128 24 q 121 54 135 54 q 61 79 86 54 q 36 140 36 104 q 61 200 36 175 q 121 225 86 225 m 182 421 q 169 408 182 421 q 122 396 157 396 q 61 421 86 396 q 36 481 36 446 q 61 542 36 517 q 122 567 86 567 q 182 542 157 567 q 207 481 207 517 q 182 421 207 446 z "},"<":{"ha":672,"x_min":69,"x_max":647,"o":"m 206 492 l 647 240 l 606 119 l 69 444 l 588 844 l 633 765 l 206 492 z "},"=":{"ha":415,"x_min":19,"x_max":396,"o":"m 19 557 l 394 558 l 394 511 l 19 518 l 19 557 m 19 404 l 19 453 l 394 446 l 394 407 l 19 404 z "},">":{"ha":671,"x_min":22,"x_max":601,"o":"m 101 843 l 601 442 l 47 119 l 22 174 l 475 424 l 31 718 l 101 843 z "},"?":{"ha":639,"x_min":69,"x_max":613,"o":"m 335 908 q 456 884 401 908 q 543 821 510 860 q 594 734 576 782 q 611 635 613 686 q 592 540 610 585 q 540 465 574 500 q 469 408 506 429 q 397 372 432 388 q 340 351 363 357 l 318 346 l 318 276 l 278 276 l 281 383 q 293 385 285 383 q 324 392 301 386 q 365 410 346 399 q 402 447 383 422 q 429 504 421 471 q 442 612 440 551 q 436 731 444 672 q 403 834 428 790 q 339 885 378 878 q 277 874 310 890 q 220 828 244 857 q 176 771 196 800 q 144 721 156 742 l 133 700 l 69 785 q 79 799 72 790 q 110 828 86 807 q 161 865 133 849 q 235 895 189 882 q 335 908 282 908 m 238 200 q 250 213 238 200 q 298 225 263 225 q 358 200 333 225 q 383 140 383 175 q 358 79 383 104 q 298 54 333 54 q 238 79 263 54 q 213 140 213 104 q 238 200 213 175 z "},"@":{"ha":1021,"x_min":40,"x_max":992,"o":"m 546 1036 q 880 919 769 1036 q 978 563 990 801 q 957 410 972 481 q 919 291 942 340 q 869 204 897 242 q 811 146 842 167 q 749 116 781 125 q 690 111 718 107 q 636 129 661 115 q 606 269 604 150 q 547 231 578 249 q 470 194 517 213 q 378 179 424 175 q 297 215 332 183 q 237 379 239 268 q 288 599 235 490 q 428 751 340 707 q 663 713 529 804 l 681 804 l 835 794 q 830 767 833 785 q 816 701 826 750 q 797 603 806 651 q 780 495 789 556 q 767 386 771 435 q 764 295 764 338 q 773 232 764 253 q 801 215 782 211 q 872 303 838 224 q 922 487 906 383 q 920 704 938 590 q 846 886 903 818 q 737 959 807 932 q 589 990 667 986 q 428 970 511 994 q 283 896 344 946 q 174 752 219 843 q 108 559 128 661 q 99 348 89 457 q 150 153 108 239 q 211 69 172 104 q 294 17 250 35 q 385 -12 338 -1 q 476 -23 433 -22 q 554 -22 519 -24 q 608 -18 589 -21 l 629 -15 l 640 -67 q 462 -71 543 -76 q 322 -47 381 -65 q 215 3 263 -28 q 138 74 168 33 q 87 161 108 114 q 58 261 65 208 q 46 370 50 314 q 47 485 42 426 q 117 759 56 635 q 292 960 179 883 q 546 1036 404 1036 m 607 310 q 656 678 614 451 q 539 713 581 728 q 484 651 510 701 q 444 534 458 600 q 422 403 429 468 q 423 292 415 339 q 450 243 431 246 q 607 310 504 232 z "},"A":{"ha":643,"x_min":-107,"x_max":693,"o":"m 269 1028 l 601 42 l 692 -29 l 383 -29 l 436 19 l 361 288 l 144 278 l 58 -53 l 133 -114 l -107 -114 l -4 -21 l 269 1028 m 157 328 l 347 338 l 250 689 l 157 328 z "},"B":{"ha":674,"x_min":-54,"x_max":658,"o":"m 418 510 q 428 507 422 508 q 455 499 435 506 q 492 483 475 492 q 534 458 508 474 q 577 422 560 442 q 615 375 594 403 q 642 314 636 347 q 653 238 649 281 q 643 144 658 194 q 590 24 628 76 q 499 -56 551 -28 q 390 -101 447 -83 q 272 -125 333 -119 q 163 -131 210 -131 q 73 -131 117 -132 q 19 -129 29 -129 l 99 -82 l 40 1003 l -53 1038 q -8 1042 -36 1039 q 99 1044 21 1044 q 244 1032 176 1043 q 387 988 311 1021 q 504 900 463 954 q 551 813 538 857 q 559 731 564 768 q 540 659 554 694 q 504 597 525 624 q 465 551 483 571 q 432 519 446 531 l 418 510 m 417 742 q 402 826 418 785 q 362 896 386 867 q 309 948 338 925 q 254 983 281 971 q 211 994 228 994 l 226 490 q 286 506 254 490 q 347 552 318 522 q 397 632 376 582 q 417 742 417 682 m 242 -82 q 335 -57 286 -82 q 422 9 383 -32 q 481 109 461 50 q 490 231 501 168 q 474 290 485 263 q 447 338 463 318 q 413 374 431 357 q 374 401 394 390 q 333 419 353 411 q 292 431 313 426 q 256 437 272 435 q 226 439 240 439 l 242 -82 z "},"C":{"ha":671,"x_min":25,"x_max":657,"o":"m 367 47 q 426 35 397 38 q 478 38 456 33 q 521 53 500 43 q 556 76 542 64 q 584 103 571 88 q 605 131 597 119 q 619 156 613 143 q 627 174 625 169 q 631 182 629 179 l 657 26 q 633 14 649 21 q 569 -6 618 7 q 472 -24 521 -19 q 351 -15 422 -28 q 214 33 281 -1 q 80 197 129 79 q 28 444 31 314 q 73 700 25 575 q 214 882 121 825 q 333 931 272 918 q 438 935 393 943 q 518 914 482 926 q 572 889 554 901 l 592 875 l 646 910 l 607 718 q 597 738 603 725 q 571 783 592 751 q 526 837 550 814 q 467 875 503 860 q 392 885 431 890 q 310 794 346 876 q 259 595 274 711 q 246 363 244 479 q 279 156 247 246 q 367 47 311 67 z "},"D":{"ha":689,"x_min":-42,"x_max":664,"o":"m 632 636 q 660 411 664 519 q 620 218 656 303 q 522 65 585 133 q 374 -42 460 -4 q 183 -95 288 -81 q -42 -85 78 -110 l 54 -39 l 72 976 l -42 1004 q -22 1007 -35 1006 q 28 1011 -10 1008 q 106 1013 67 1014 q 198 1003 144 1011 q 300 981 251 996 q 401 938 349 967 q 497 871 454 910 q 576 772 539 832 q 632 636 613 711 m 467 403 q 460 583 471 500 q 428 720 450 665 q 380 819 407 775 q 325 886 353 863 q 274 926 297 910 q 236 946 251 942 l 222 951 l 246 -7 q 258 -3 250 -6 q 286 10 265 -1 q 327 40 307 22 q 372 90 347 57 q 415 163 396 122 q 448 266 433 203 q 467 403 463 329 z "},"E":{"ha":701,"x_min":0,"x_max":679,"o":"m 129 872 l 53 907 l 678 919 l 678 733 l 600 863 l 314 863 l 300 533 l 469 533 l 539 619 l 518 386 l 482 481 l 297 489 l 278 57 l 604 39 l 678 154 l 678 -7 l 0 25 l 99 61 l 129 872 z "},"F":{"ha":664,"x_min":-32,"x_max":667,"o":"m 57 974 l -31 1013 l 665 1028 l 653 799 l 568 974 l 265 974 l 265 481 l 472 472 l 521 538 l 504 344 l 478 422 l 265 436 l 265 -56 l 364 -99 l -31 -114 l 74 -29 l 57 974 z "},"G":{"ha":857,"x_min":28,"x_max":851,"o":"m 593 449 l 504 499 l 851 474 l 778 408 l 778 17 q 761 3 772 13 q 716 -28 750 -6 q 646 -68 682 -51 q 556 -97 610 -85 q 449 -106 501 -108 q 331 -79 396 -104 q 206 -6 267 -54 q 108 109 147 40 q 53 253 69 178 q 33 414 38 329 q 40 576 28 499 q 126 813 56 706 q 282 968 197 919 q 417 1017 350 1007 q 528 1011 483 1026 q 610 976 574 996 q 663 936 646 956 l 679 918 l 728 954 l 679 722 q 676 731 678 725 q 665 758 674 738 q 648 797 657 779 q 624 841 639 814 q 595 887 610 868 q 560 928 581 906 q 521 959 540 950 q 476 976 501 968 q 428 972 451 983 q 317 824 356 951 q 275 518 278 696 q 276 417 274 469 q 286 307 279 364 q 304 197 293 250 q 332 96 315 144 q 369 11 349 47 q 418 -47 390 -25 q 478 -71 446 -69 q 506 -69 492 -72 q 531 -61 519 -67 q 553 -49 542 -56 q 572 -33 564 -42 q 588 -17 581 -25 q 601 -1 596 -8 q 610 13 607 7 q 617 22 614 18 l 618 25 l 593 449 z "},"H":{"ha":821,"x_min":3,"x_max":838,"o":"m 838 1047 l 760 992 l 756 -64 l 799 -118 l 457 -135 l 551 -64 l 563 376 l 281 365 l 288 -42 l 353 -94 l 25 -118 l 111 -42 l 108 881 l 3 951 l 371 936 l 272 904 l 279 419 l 565 438 l 581 1010 l 494 1047 l 838 1047 z "},"I":{"ha":410,"x_min":4,"x_max":411,"o":"m 300 874 l 304 51 l 378 -8 l 6 -8 l 119 68 l 100 844 l 6 901 l 410 921 l 300 874 z "},"J":{"ha":667,"x_min":-7,"x_max":669,"o":"m 272 982 l 669 1010 l 606 958 q 608 891 607 933 q 608 731 608 849 q 606 511 608 614 q 592 292 603 408 q 565 107 582 176 q 480 -28 544 25 q 338 -93 415 -81 q 178 -78 260 -106 q 43 14 96 -51 l -7 -11 l 43 249 q 53 215 46 236 q 85 140 61 194 q 135 45 108 86 q 201 -31 161 4 q 279 -68 240 -67 q 358 31 329 -69 q 394 275 388 131 q 399 565 400 419 q 392 811 399 710 l 386 913 l 272 982 z "},"K":{"ha":781,"x_min":8,"x_max":799,"o":"m 381 635 l 688 65 l 797 8 l 443 -68 l 500 8 l 282 524 l 242 479 l 251 31 l 340 -28 l 8 -51 l 71 -10 l 79 860 l 31 907 l 292 910 l 235 864 l 240 569 l 578 924 l 553 981 l 746 942 l 626 910 l 381 635 z "},"L":{"ha":578,"x_min":3,"x_max":583,"o":"m 529 43 l 567 163 l 582 -3 l 44 -3 l 104 56 l 89 874 l 3 915 l 390 915 l 310 858 l 289 28 l 529 43 z "},"M":{"ha":921,"x_min":-12,"x_max":960,"o":"m 829 922 l 857 15 l 960 -43 l 579 -58 l 657 -8 l 646 803 l 404 19 l 168 738 l 140 35 l 222 -21 l -12 -14 l 78 29 l 110 815 l 31 878 l 297 861 l 453 367 l 633 954 l 899 971 l 829 922 z "},"N":{"ha":683,"x_min":8,"x_max":674,"o":"m 547 894 l 474 924 l 672 938 l 610 894 l 581 21 l 150 740 l 179 115 l 288 78 l 33 64 l 114 122 l 99 825 l 8 857 l 264 882 l 547 439 l 547 894 z "},"O":{"ha":633,"x_min":28,"x_max":603,"o":"m 328 897 q 429 874 383 897 q 507 813 475 851 q 560 724 539 775 q 592 615 582 672 q 603 500 603 558 q 595 376 603 436 q 568 251 588 315 q 519 137 549 186 q 440 54 489 88 q 328 17 390 21 q 243 26 283 14 q 172 62 203 38 q 117 119 142 86 q 75 193 92 153 q 48 278 58 233 q 33 367 38 322 q 32 457 29 413 q 44 582 35 524 q 76 700 54 640 q 131 802 99 760 q 213 871 163 844 q 328 897 264 897 m 439 457 q 433 601 440 529 q 412 735 426 674 q 371 831 397 796 q 311 863 344 867 q 240 778 268 856 q 203 610 213 701 q 194 417 194 519 q 206 242 194 324 q 246 106 218 161 q 311 50 274 50 q 371 86 346 50 q 409 184 396 122 q 429 313 422 246 q 439 457 436 379 z "},"P":{"ha":615,"x_min":-46,"x_max":601,"o":"m 242 1006 q 281 1003 261 1006 q 332 997 301 1001 q 391 981 363 992 q 451 953 419 969 q 509 910 483 938 q 556 849 535 883 q 590 767 578 815 q 601 661 601 718 q 583 549 601 600 q 535 464 565 499 q 469 403 504 429 q 393 360 435 376 q 321 335 351 344 q 258 321 290 326 l 267 -15 l 339 -58 l -7 -60 l 86 -7 l 71 960 l -46 1006 l 242 1006 m 433 661 q 429 793 440 735 q 397 884 418 851 q 346 939 376 917 q 292 969 315 961 q 243 979 268 976 l 257 358 q 305 380 282 365 q 356 426 328 394 q 406 517 385 457 q 433 661 426 578 z "},"Q":{"ha":685,"x_min":32,"x_max":649,"o":"m 644 585 q 637 388 649 479 q 587 213 625 296 q 488 92 549 129 l 553 18 l 615 38 l 504 -110 l 382 61 q 378 61 381 61 q 375 61 376 61 q 119 169 204 61 q 35 511 33 278 q 313 1022 39 1008 q 442 1005 385 1026 q 535 944 499 983 q 597 846 572 904 q 631 724 621 788 q 644 585 642 660 m 353 97 q 355 97 354 97 q 356 97 356 97 l 325 140 l 283 119 q 353 97 314 93 m 375 221 l 429 160 q 486 571 485 269 q 444 897 488 789 q 324 988 401 1004 q 226 827 261 974 q 194 503 190 681 q 274 129 199 211 l 375 221 z "},"R":{"ha":749,"x_min":13,"x_max":758,"o":"m 471 419 l 668 126 l 757 113 l 474 -28 l 511 40 l 321 368 q 279 361 300 364 l 285 104 l 351 53 l 14 39 l 108 83 l 92 889 l 14 926 q 263 940 201 939 q 308 939 283 940 q 369 931 333 938 q 439 912 406 924 q 506 878 472 900 q 565 826 540 856 q 606 750 590 796 q 622 649 622 704 q 471 419 622 499 m 279 393 q 308 402 293 396 q 343 420 324 408 q 379 451 363 432 q 411 497 396 471 q 438 562 426 522 q 456 649 450 601 q 264 904 481 883 l 279 393 z "},"S":{"ha":485,"x_min":25,"x_max":482,"o":"m 264 529 q 449 285 415 372 q 428 142 482 199 q 265 85 375 85 q 169 102 218 85 q 97 136 121 119 l 72 154 l 35 114 l 83 289 q 88 271 85 282 q 104 229 92 260 q 133 175 117 199 q 178 131 149 151 q 244 108 208 111 q 310 146 311 104 q 176 357 308 200 q 149 391 161 376 q 120 428 138 406 q 91 471 103 451 q 66 515 79 490 q 44 563 53 540 q 31 611 36 586 q 26 661 25 636 q 35 710 28 686 q 99 797 50 765 q 206 829 149 828 q 318 799 263 831 q 403 704 374 767 l 447 740 l 399 601 q 392 623 396 610 q 376 669 389 636 q 350 727 364 701 q 315 773 336 753 q 271 793 293 793 q 195 749 215 792 q 194 644 175 706 q 264 529 214 582 z "},"T":{"ha":660,"x_min":-15,"x_max":672,"o":"m -15 1015 l 671 1028 l 672 899 l 642 976 l 411 972 l 431 111 l 486 58 l 189 58 l 249 108 l 250 969 l 25 965 l -1 883 l -15 1015 z "},"U":{"ha":701,"x_min":6,"x_max":692,"o":"m 483 881 l 690 889 l 614 843 q 588 143 615 328 q 532 42 578 82 q 424 -6 486 3 q 297 -5 361 -15 q 181 45 233 6 q 108 143 128 85 q 82 377 90 193 q 72 721 74 561 l 72 879 l 7 915 l 331 915 l 276 867 q 296 117 282 257 q 331 59 299 79 q 401 40 363 39 q 478 64 440 40 q 531 131 515 88 q 552 364 547 182 q 553 703 557 546 l 550 860 l 483 881 z "},"V":{"ha":725,"x_min":-25,"x_max":804,"o":"m 803 993 l 690 967 l 399 -103 l 60 922 l -24 960 l 278 985 l 226 949 l 446 222 l 638 972 l 569 1015 l 803 993 z "},"W":{"ha":1153,"x_min":-17,"x_max":1171,"o":"m 1006 858 l 947 900 l 1171 885 l 1054 840 l 768 3 l 528 738 l 324 3 l 49 869 l -17 896 l 297 910 l 228 858 l 372 315 l 500 847 l 450 890 l 704 890 l 649 847 l 811 300 l 1006 858 z "},"X":{"ha":760,"x_min":-10,"x_max":775,"o":"m 433 514 l 660 128 l 775 103 l 432 14 l 499 76 l 342 358 l 181 85 l 254 42 l 11 85 l 111 107 l 307 422 l 90 813 l -10 864 l 296 900 l 236 847 l 400 569 l 553 817 l 479 869 l 717 850 l 606 808 l 433 514 z "},"Y":{"ha":729,"x_min":-18,"x_max":749,"o":"m 597 890 l 532 950 l 749 922 l 638 875 l 451 531 l 481 13 l 561 -40 l 207 -61 l 289 -11 l 308 404 l 68 907 l -18 950 l 292 975 l 211 928 l 414 582 l 597 890 z "},"Z":{"ha":646,"x_min":14,"x_max":635,"o":"m 557 86 l 635 236 l 618 53 l 14 53 l 432 810 l 75 796 l 35 661 l 14 860 l 599 860 l 283 90 l 557 86 z "},"[":{"ha":364,"x_min":60,"x_max":342,"o":"m 310 1 l 342 60 l 342 -25 l 60 -28 l 69 989 l 326 990 l 322 904 l 290 969 l 210 967 l 211 1 l 310 1 z "},"\\":{"ha":635,"x_min":69,"x_max":565,"o":"m 140 1000 l 565 -4 l 488 -36 l 69 963 l 140 1000 z "},"]":{"ha":357,"x_min":7,"x_max":294,"o":"m 36 1022 l 293 1026 l 293 -62 l 8 -60 l 8 25 l 42 -39 l 143 -42 l 150 1004 l 72 1001 l 40 936 l 36 1022 z "},"^":{"ha":417,"x_min":17,"x_max":397,"o":"m 215 968 l 397 644 l 369 628 l 243 857 l 106 628 l 17 642 l 215 968 z "},"_":{"ha":464,"x_min":14,"x_max":450,"o":"m 14 46 l 449 47 l 449 0 l 14 7 l 14 46 z "},"`":{"ha":236,"x_min":18,"x_max":207,"o":"m 168 981 l 206 703 l 183 689 l 18 981 l 168 981 z "},"a":{"ha":571,"x_min":-56,"x_max":664,"o":"m 267 922 l 583 -37 l 664 -100 l 388 -100 l 435 -57 l 347 261 l 156 253 l 93 7 l 160 -47 l -56 -47 l 36 36 l 267 922 m 167 297 l 335 306 l 249 619 l 167 297 z "},"b":{"ha":599,"x_min":-44,"x_max":586,"o":"m 308 414 q 326 412 315 413 q 369 403 338 411 q 427 385 400 396 q 487 355 454 375 q 541 308 519 335 q 574 241 563 282 q 576 151 585 200 q 522 28 565 79 q 426 -46 479 -22 q 303 -82 372 -69 q 183 -94 235 -94 q 80 -93 132 -94 q 21 -93 28 -92 l 90 -51 l 39 878 l -44 908 q -3 914 -29 911 q 93 917 22 917 q 225 907 164 917 q 352 867 286 897 q 453 786 418 836 q 487 717 476 751 q 494 653 497 683 q 481 595 492 624 q 454 543 471 567 q 418 499 438 519 q 379 463 399 478 q 344 436 360 447 q 318 419 328 425 l 308 414 m 375 646 q 353 736 375 692 q 301 808 332 781 q 241 853 271 836 q 190 871 211 871 l 204 414 q 252 431 224 414 q 308 478 281 449 q 356 552 336 507 q 375 646 375 597 m 218 -51 q 301 -28 258 -51 q 379 31 344 -6 q 432 120 414 67 q 440 228 450 174 q 425 279 436 257 q 402 316 414 301 q 370 341 390 331 q 337 357 350 351 q 299 365 324 363 q 265 368 274 368 q 231 368 256 368 q 204 368 207 368 l 218 -51 z "},"c":{"ha":604,"x_min":31,"x_max":596,"o":"m 336 -3 q 390 -14 364 -12 q 435 -11 415 -15 q 474 2 456 -7 q 506 23 492 11 q 531 48 519 35 q 549 74 542 61 q 562 96 557 86 q 569 111 567 106 q 571 117 571 117 l 594 -22 q 574 -33 588 -26 q 517 -51 560 -39 q 430 -66 474 -62 q 322 -58 386 -69 q 200 -15 258 -46 q 80 145 124 25 q 33 400 36 265 q 74 662 31 535 q 200 839 117 789 q 306 882 251 871 q 399 886 360 893 q 471 868 439 879 q 519 846 503 857 l 536 833 l 585 864 l 550 693 q 540 713 546 700 q 513 755 533 725 q 472 806 493 785 q 417 842 450 828 q 353 849 385 857 q 267 710 303 838 q 225 433 232 583 q 246 150 218 282 q 336 -3 274 18 z "},"d":{"ha":658,"x_min":8,"x_max":642,"o":"m 618 531 q 626 320 642 417 q 560 155 610 224 q 429 41 510 86 q 242 -14 349 -4 q 8 -1 136 -24 l 93 40 l 110 796 l 8 819 q 38 826 19 822 q 113 835 57 831 q 222 839 169 840 q 340 821 274 838 q 459 772 407 804 q 556 678 511 740 q 618 531 600 617 m 461 350 q 457 519 467 443 q 428 640 447 594 q 385 719 408 686 q 336 768 361 753 q 290 792 311 783 q 257 801 269 800 q 243 801 244 803 l 265 40 q 276 38 269 39 q 301 40 282 38 q 338 51 319 43 q 378 80 356 58 q 416 133 400 101 q 445 222 432 165 q 461 350 458 278 z "},"e":{"ha":610,"x_min":-11,"x_max":594,"o":"m 236 13 l 528 -3 l 594 99 l 594 -44 l -11 -15 l 76 15 l 81 824 l 13 854 l 571 867 l 571 699 l 501 815 l 246 815 l 242 468 l 408 468 l 469 544 l 451 338 l 419 422 l 242 429 l 236 13 z "},"f":{"ha":589,"x_min":10,"x_max":578,"o":"m 89 763 l 11 799 l 578 811 l 567 607 l 489 763 l 275 763 l 275 458 l 460 465 l 485 517 l 489 351 l 449 421 l 275 419 l 275 63 l 363 24 l 11 10 l 104 86 l 89 763 z "},"g":{"ha":767,"x_min":15,"x_max":760,"o":"m 529 406 l 449 443 l 758 424 l 693 374 l 693 78 q 665 58 683 69 q 590 21 647 46 q 476 -13 533 -4 q 338 -6 419 -22 q 182 60 257 10 q 49 247 83 128 q 35 503 15 367 q 78 629 44 568 q 158 733 113 690 q 251 799 203 775 q 372 835 313 829 q 471 831 431 842 q 543 804 511 819 q 590 775 575 789 l 606 760 l 649 788 l 606 613 q 596 636 603 621 q 566 688 589 651 q 518 750 543 724 q 456 794 493 776 q 381 801 419 811 q 282 689 317 786 q 244 458 247 592 q 252 318 243 390 q 281 176 261 246 q 339 60 301 106 q 426 11 376 14 q 491 28 460 10 q 538 65 522 46 l 551 83 l 529 406 z "},"h":{"ha":699,"x_min":-36,"x_max":693,"o":"m 386 868 l 692 868 l 622 819 l 636 -22 l 692 -68 l 390 -69 l 453 -22 l 457 365 l 211 364 l 217 -65 l 275 -111 l -15 -108 l 61 -40 l 58 871 l -36 933 l 292 921 l 204 890 l 211 413 l 458 421 l 463 835 l 386 868 z "},"i":{"ha":371,"x_min":3,"x_max":364,"o":"m 364 808 l 279 757 l 261 64 l 364 -3 l 32 -3 l 97 50 l 101 783 l 3 825 l 364 808 z "},"j":{"ha":629,"x_min":4,"x_max":626,"o":"m 289 857 l 626 869 l 569 824 q 570 690 568 797 q 561 402 572 583 q 526 124 550 221 q 449 7 508 51 q 317 -45 389 -37 q 171 -26 246 -53 q 49 58 96 0 l 4 36 l 49 268 q 58 238 51 257 q 87 172 65 219 q 131 86 108 124 q 189 18 154 49 q 260 -14 224 -12 q 332 69 304 -17 q 368 276 360 154 q 378 522 376 399 q 376 732 381 644 l 374 818 l 289 857 z "},"k":{"ha":679,"x_min":-1,"x_max":692,"o":"m 315 546 l 592 38 l 692 18 l 410 -74 l 465 -19 l 232 444 l 222 433 l 221 -31 l 265 -72 l 32 -74 l 82 -33 l 67 826 l -1 864 l 279 857 l 222 821 l 222 517 l 508 846 l 486 896 l 633 838 l 551 832 l 315 546 z "},"l":{"ha":497,"x_min":8,"x_max":504,"o":"m 456 13 l 489 119 l 503 -28 l 46 -28 l 100 25 l 85 803 l 8 840 l 335 849 l 261 797 l 264 0 l 456 13 z "},"m":{"ha":835,"x_min":-11,"x_max":840,"o":"m 739 794 l 747 39 l 839 -12 l 500 -26 l 569 18 l 576 718 l 361 -11 l 126 744 l 125 1 l 197 -47 l -11 -42 l 69 -3 l 75 815 l 4 869 l 242 856 l 404 297 l 565 822 l 801 838 l 739 794 z "},"n":{"ha":607,"x_min":14,"x_max":594,"o":"m 482 750 l 417 776 l 593 789 l 538 750 l 511 -1 l 140 718 l 153 97 l 250 49 l 24 38 l 96 90 l 94 793 l 14 822 l 242 824 l 482 372 l 482 750 z "},"o":{"ha":581,"x_min":29,"x_max":544,"o":"m 299 846 q 425 802 371 846 q 512 665 479 758 q 544 438 544 571 q 533 281 544 354 q 494 138 521 207 q 418 25 468 68 q 299 -24 368 -18 q 175 12 229 -29 q 90 122 121 53 q 45 274 60 192 q 35 439 31 356 q 71 639 39 547 q 163 788 103 731 q 299 846 222 846 m 397 438 q 374 710 400 600 q 289 821 347 821 q 224 751 250 821 q 189 592 199 682 q 179 397 179 501 q 206 127 179 242 q 285 13 233 13 q 349 81 324 13 q 385 238 375 149 q 397 438 394 326 z "},"p":{"ha":592,"x_min":0,"x_max":578,"o":"m 257 835 q 267 835 260 835 q 310 835 293 835 q 364 830 328 835 q 425 816 400 825 q 481 788 450 807 q 531 742 513 768 q 564 673 550 715 q 578 576 578 631 q 569 515 578 543 q 550 465 561 486 q 517 425 539 444 q 481 394 496 406 q 436 371 465 382 q 393 354 407 360 q 347 342 379 349 q 308 333 315 335 q 271 328 300 332 l 279 26 l 343 -11 l 35 -12 l 118 35 l 104 793 l 0 835 l 257 835 m 428 576 q 419 678 431 635 q 391 746 408 722 q 346 785 374 769 q 300 804 318 800 q 257 811 282 808 l 271 361 q 428 576 418 397 z "},"q":{"ha":614,"x_min":28,"x_max":581,"o":"m 575 521 q 547 274 579 386 q 436 117 515 163 l 493 53 l 549 69 l 450 -61 l 340 92 q 337 92 339 92 q 335 92 335 92 q 106 181 182 92 q 31 460 29 269 q 102 756 32 647 q 278 881 172 864 q 407 864 350 890 q 499 785 464 838 q 553 665 533 732 q 575 521 572 597 m 315 121 q 318 122 315 121 l 289 163 l 249 142 q 315 121 278 118 m 385 176 q 433 510 433 268 q 399 767 435 683 q 303 851 364 851 q 234 790 265 851 q 187 637 203 728 q 172 454 171 546 q 242 150 176 219 l 335 233 l 385 176 z "},"r":{"ha":669,"x_min":7,"x_max":675,"o":"m 431 383 l 593 110 l 674 97 l 421 -28 l 454 32 l 297 339 q 261 332 279 335 l 250 56 l 310 10 l 8 -3 l 92 38 l 94 803 l 25 838 q 247 849 192 847 q 296 847 269 850 q 361 837 322 844 q 435 810 400 829 q 500 765 469 792 q 549 692 531 738 q 568 589 568 646 q 431 383 567 454 m 261 361 q 294 371 278 364 q 331 394 310 378 q 368 435 351 411 q 399 499 385 458 q 418 589 413 539 q 247 818 440 799 l 261 361 z "},"s":{"ha":515,"x_min":1,"x_max":488,"o":"m 254 779 q 185 739 182 785 q 326 515 188 681 q 356 481 343 496 q 386 441 368 465 q 417 396 404 417 q 444 349 429 375 q 467 299 458 324 q 481 247 475 274 q 485 194 486 221 q 476 143 485 168 q 427 64 464 96 q 343 23 390 32 q 247 22 296 14 q 155 63 199 29 q 88 149 111 96 l 40 111 l 90 257 q 97 235 93 249 q 115 186 101 221 q 142 124 128 151 q 180 76 157 97 q 226 54 203 54 q 306 101 285 56 q 307 213 328 147 q 233 333 286 278 q 38 592 74 500 q 59 744 3 683 q 232 806 115 806 q 333 787 282 806 q 411 750 385 768 l 436 732 l 476 774 l 424 588 q 419 608 422 596 q 403 652 417 621 q 373 708 390 683 q 324 755 356 733 q 254 779 292 776 z "},"t":{"ha":544,"x_min":-1,"x_max":546,"o":"m -1 783 l 543 794 l 544 679 l 518 749 l 357 744 l 358 72 l 413 28 l 147 28 l 196 74 l 214 742 l 35 739 l 11 665 l -1 783 z "},"u":{"ha":625,"x_min":6,"x_max":618,"o":"m 432 729 l 617 736 l 549 694 q 525 201 550 365 q 476 112 517 147 q 378 68 435 76 q 265 69 322 60 q 161 113 208 78 q 97 201 114 149 q 74 377 82 246 q 65 618 65 508 l 65 728 l 7 760 l 296 760 l 247 715 q 244 604 246 672 q 247 391 243 536 q 264 178 250 246 q 300 126 271 144 q 363 109 329 108 q 428 131 396 110 q 474 190 461 151 q 494 366 489 236 q 494 603 499 496 l 492 710 l 432 729 z "},"v":{"ha":621,"x_min":-58,"x_max":644,"o":"m 496 828 l 435 867 l 643 847 l 543 824 l 319 -74 l 17 840 l -58 874 l 211 896 l 164 864 l 361 217 l 496 828 z "},"w":{"ha":1022,"x_min":-18,"x_max":1036,"o":"m 836 838 l 1035 824 l 932 785 l 700 -33 l 485 621 l 303 -33 l 40 819 l -18 843 l 261 856 l 200 810 l 346 244 l 460 719 l 415 757 l 642 757 l 593 719 l 738 231 l 888 800 l 836 838 z "},"x":{"ha":717,"x_min":-7,"x_max":728,"o":"m 415 468 l 632 103 l 726 88 l 440 -18 l 500 38 l 338 326 l 174 31 l 225 -33 l 22 31 l 128 53 l 310 376 l 85 776 l -6 824 l 267 854 l 214 808 l 388 515 l 540 786 l 475 833 l 686 815 l 588 779 l 415 468 z "},"y":{"ha":650,"x_min":-21,"x_max":663,"o":"m 526 756 l 468 808 l 661 783 l 563 740 l 399 457 l 432 36 l 504 -10 l 179 -10 l 253 35 l 271 344 l 76 751 l -21 764 l 238 832 l 197 786 l 357 482 l 526 756 z "},"z":{"ha":572,"x_min":1,"x_max":556,"o":"m 242 15 l 486 11 l 556 146 l 540 -18 l 1 -18 l 408 796 l 89 783 l 53 663 l 33 840 l 556 840 l 242 15 z "},"{":{"ha":314,"x_min":33,"x_max":299,"o":"m 228 61 q 288 -17 221 3 q 297 -18 293 -18 l 286 -47 q 153 20 196 -25 q 106 137 111 65 q 115 313 101 208 q 113 383 119 351 q 94 430 107 414 q 67 456 81 446 q 43 468 54 465 l 33 471 l 49 508 q 102 553 86 521 q 115 624 118 585 q 105 709 111 663 q 93 799 99 756 q 99 881 88 842 q 130 940 107 914 q 179 979 153 967 q 230 999 206 992 q 271 1010 254 1007 l 286 1011 l 296 992 q 238 947 254 979 q 226 876 221 915 q 239 790 231 836 q 254 702 247 743 q 247 625 261 661 q 216 566 236 592 q 176 526 196 540 q 137 504 156 513 q 107 493 118 496 l 94 490 q 153 460 128 479 q 194 417 179 442 q 222 367 210 392 q 238 310 233 343 q 244 253 242 278 q 243 195 246 229 q 239 143 240 161 q 233 96 238 125 q 228 61 228 67 z "},"|":{"ha":232,"x_min":61,"x_max":175,"o":"m 61 1136 l 175 1136 l 158 -174 l 67 -174 l 61 1136 z "},"}":{"ha":329,"x_min":8,"x_max":299,"o":"m 200 672 q 275 504 185 543 l 299 496 l 299 467 q 238 415 257 453 q 218 331 218 378 q 220 230 218 285 q 226 125 222 175 q 218 32 229 75 q 184 -36 208 -7 q 132 -80 160 -65 q 78 -103 104 -94 q 35 -114 53 -112 l 18 -117 l 8 -94 q 70 -44 53 -81 q 82 36 88 -8 q 68 133 76 81 q 53 233 60 186 q 60 319 46 279 q 97 388 72 357 q 146 435 121 418 q 194 463 171 451 q 233 478 218 474 l 249 482 q 165 508 200 488 q 108 555 129 528 q 76 622 88 582 q 60 697 64 663 q 59 778 57 732 q 65 852 61 824 q 74 919 68 881 q 81 967 81 957 q 67 1022 85 1000 q 29 1050 49 1044 l 10 1054 l 18 1079 q 160 1003 115 1054 q 209 870 204 951 q 200 672 214 789 z "},"~":{"ha":665,"x_min":24,"x_max":642,"o":"m 608 542 l 640 524 q 631 499 638 514 q 603 448 625 485 q 558 385 582 411 q 497 339 535 358 q 421 326 460 319 q 354 351 388 332 q 294 396 321 371 q 245 445 268 421 q 202 488 222 469 q 169 511 182 507 q 131 511 150 518 q 97 490 111 504 q 72 460 83 475 q 56 433 61 444 l 50 422 l 24 444 q 34 467 28 453 q 63 515 40 481 q 108 576 85 550 q 167 622 132 601 q 239 638 203 642 q 320 588 268 635 q 425 491 372 540 q 507 435 478 442 q 522 434 514 432 q 536 436 531 436 q 548 442 542 436 q 558 450 554 447 q 568 461 563 453 q 576 474 574 469 q 584 489 579 479 q 592 506 589 499 q 599 524 594 513 q 608 542 604 535 z "}," ":{"ha":425,"x_min":0,"x_max":0,"o":""},"­":{"ha":0,"x_min":0,"x_max":0,"o":""},"‘":{"ha":228,"x_min":29,"x_max":200,"o":"m 115 878 q 175 853 150 878 q 200 792 200 828 q 175 732 200 757 q 115 707 150 707 q 54 732 79 707 q 29 793 29 757 q 47 890 29 840 q 83 965 65 939 l 101 992 l 175 919 l 133 931 q 86 874 108 910 q 115 878 101 878 z "},"’":{"ha":228,"x_min":28,"x_max":199,"o":"m 53 967 q 65 979 53 967 q 113 992 78 992 q 174 967 149 992 q 199 906 199 942 q 181 809 199 858 q 144 733 163 760 l 126 707 l 53 779 l 94 768 q 142 825 119 789 q 113 821 126 821 q 53 846 78 821 q 28 906 28 871 q 53 967 28 942 z "},"‚":{"ha":228,"x_min":28,"x_max":199,"o":"m 53 303 q 65 315 53 303 q 113 328 78 328 q 174 303 149 328 q 199 242 199 278 q 191 181 199 213 q 173 126 183 150 q 152 83 163 103 q 135 54 142 64 l 126 43 l 53 115 l 94 104 q 142 161 119 125 q 113 157 126 157 q 53 182 78 157 q 28 242 28 207 q 53 303 28 278 z "},"“":{"ha":442,"x_min":29,"x_max":414,"o":"m 115 878 q 175 853 150 878 q 200 792 200 828 q 175 732 200 757 q 115 707 150 707 q 54 732 79 707 q 29 793 29 757 q 47 890 29 840 q 83 965 65 939 l 101 992 l 175 919 l 133 931 q 86 874 108 910 q 115 878 101 878 m 328 878 q 388 853 363 878 q 413 792 413 828 q 388 732 413 757 q 327 707 363 707 q 267 732 292 707 q 242 793 242 757 q 260 890 242 840 q 296 965 278 939 l 314 992 l 389 919 l 347 931 q 299 874 321 910 q 328 878 314 878 z "},"”":{"ha":442,"x_min":28,"x_max":413,"o":"m 326 992 q 369 980 350 992 q 400 949 389 968 q 411 906 411 929 q 394 809 411 858 q 358 733 376 760 l 340 707 l 265 779 l 307 768 q 354 825 332 789 q 326 821 340 821 q 265 846 290 821 q 240 906 240 871 q 265 967 240 942 q 326 992 290 992 m 53 967 q 65 979 53 967 q 113 992 78 992 q 174 967 149 992 q 199 906 199 942 q 181 809 199 858 q 144 733 163 760 l 126 707 l 53 779 l 94 768 q 142 825 119 789 q 113 821 126 821 q 53 846 78 821 q 28 906 28 871 q 53 967 28 942 z "},"„":{"ha":442,"x_min":28,"x_max":413,"o":"m 326 328 q 369 316 350 328 q 400 285 389 304 q 411 242 411 265 q 404 181 411 213 q 387 126 397 150 q 365 83 376 103 q 347 54 354 64 l 340 43 l 265 115 l 307 104 q 354 161 332 125 q 326 157 340 157 q 265 182 290 157 q 240 242 240 207 q 265 303 240 278 q 326 328 290 328 m 53 303 q 65 315 53 303 q 113 328 78 328 q 174 303 149 328 q 199 242 199 278 q 191 181 199 213 q 173 126 183 150 q 152 83 163 103 q 135 54 142 64 l 126 43 l 53 115 l 94 104 q 142 161 119 125 q 113 157 126 157 q 53 182 78 157 q 28 242 28 207 q 53 303 28 278 z "}}}
